<mxfile host="app.diagrams.net" modified="2021-05-03T15:14:34.614Z" agent="5.0 (Windows NT 10.0; Win64; x64) AppleWebKit/537.36 (KHTML, like Gecko) Chrome/90.0.4430.93 Safari/537.36 Edg/90.0.818.51" etag="3XWsvEKXurudQ5FqdTUe" version="14.6.9" type="github">
  <diagram id="CN1HLaTHvXJTSerCfDR8" name="第 1 页">
    <mxGraphModel dx="1955" dy="1115" grid="1" gridSize="10" guides="1" tooltips="1" connect="1" arrows="1" fold="1" page="1" pageScale="1" pageWidth="827" pageHeight="1169" math="0" shadow="0">
      <root>
        <mxCell id="0" />
        <mxCell id="1" parent="0" />
        <mxCell id="6P1iUBZrjP9FAu_aTaxR-9" style="edgeStyle=orthogonalEdgeStyle;rounded=0;orthogonalLoop=1;jettySize=auto;html=1;exitX=0.5;exitY=1;exitDx=0;exitDy=0;entryX=0.5;entryY=0;entryDx=0;entryDy=0;fillColor=#d5e8d4;strokeColor=#82b366;" edge="1" parent="1" source="6P1iUBZrjP9FAu_aTaxR-1" target="6P1iUBZrjP9FAu_aTaxR-3">
          <mxGeometry relative="1" as="geometry" />
        </mxCell>
        <mxCell id="6P1iUBZrjP9FAu_aTaxR-11" style="edgeStyle=none;rounded=0;orthogonalLoop=1;jettySize=auto;html=1;exitX=0.5;exitY=1;exitDx=0;exitDy=0;entryX=1;entryY=0;entryDx=0;entryDy=0;fillColor=#d5e8d4;strokeColor=#82b366;" edge="1" parent="1" source="6P1iUBZrjP9FAu_aTaxR-1" target="6P1iUBZrjP9FAu_aTaxR-2">
          <mxGeometry relative="1" as="geometry" />
        </mxCell>
        <mxCell id="6P1iUBZrjP9FAu_aTaxR-12" style="edgeStyle=none;rounded=0;orthogonalLoop=1;jettySize=auto;html=1;exitX=0.5;exitY=1;exitDx=0;exitDy=0;entryX=0;entryY=0;entryDx=0;entryDy=0;fillColor=#d5e8d4;strokeColor=#82b366;" edge="1" parent="1" source="6P1iUBZrjP9FAu_aTaxR-1" target="6P1iUBZrjP9FAu_aTaxR-4">
          <mxGeometry relative="1" as="geometry" />
        </mxCell>
        <mxCell id="6P1iUBZrjP9FAu_aTaxR-1" value="[ ]" style="ellipse;whiteSpace=wrap;html=1;aspect=fixed;fillColor=#d5e8d4;strokeColor=#82b366;" vertex="1" parent="1">
          <mxGeometry x="1060" y="170" width="30" height="30" as="geometry" />
        </mxCell>
        <mxCell id="6P1iUBZrjP9FAu_aTaxR-13" style="edgeStyle=none;rounded=0;orthogonalLoop=1;jettySize=auto;html=1;exitX=0.5;exitY=1;exitDx=0;exitDy=0;entryX=0.5;entryY=0;entryDx=0;entryDy=0;fillColor=#d5e8d4;strokeColor=#82b366;" edge="1" parent="1" source="6P1iUBZrjP9FAu_aTaxR-2" target="6P1iUBZrjP9FAu_aTaxR-5">
          <mxGeometry relative="1" as="geometry" />
        </mxCell>
        <mxCell id="6P1iUBZrjP9FAu_aTaxR-14" style="edgeStyle=none;rounded=0;orthogonalLoop=1;jettySize=auto;html=1;exitX=0.5;exitY=1;exitDx=0;exitDy=0;entryX=0.5;entryY=0;entryDx=0;entryDy=0;fillColor=#d5e8d4;strokeColor=#82b366;" edge="1" parent="1" source="6P1iUBZrjP9FAu_aTaxR-2" target="6P1iUBZrjP9FAu_aTaxR-6">
          <mxGeometry relative="1" as="geometry">
            <mxPoint x="1011" y="289" as="targetPoint" />
          </mxGeometry>
        </mxCell>
        <mxCell id="6P1iUBZrjP9FAu_aTaxR-2" value="1" style="ellipse;whiteSpace=wrap;html=1;aspect=fixed;fillColor=#d5e8d4;strokeColor=#82b366;" vertex="1" parent="1">
          <mxGeometry x="970" y="230" width="30" height="30" as="geometry" />
        </mxCell>
        <mxCell id="6P1iUBZrjP9FAu_aTaxR-15" style="edgeStyle=none;rounded=0;orthogonalLoop=1;jettySize=auto;html=1;exitX=0.5;exitY=1;exitDx=0;exitDy=0;entryX=0.5;entryY=0;entryDx=0;entryDy=0;fillColor=#d5e8d4;strokeColor=#82b366;" edge="1" parent="1" source="6P1iUBZrjP9FAu_aTaxR-3" target="6P1iUBZrjP9FAu_aTaxR-7">
          <mxGeometry relative="1" as="geometry" />
        </mxCell>
        <mxCell id="6P1iUBZrjP9FAu_aTaxR-3" value="2" style="ellipse;whiteSpace=wrap;html=1;aspect=fixed;fillColor=#d5e8d4;strokeColor=#82b366;" vertex="1" parent="1">
          <mxGeometry x="1060" y="230" width="30" height="30" as="geometry" />
        </mxCell>
        <mxCell id="6P1iUBZrjP9FAu_aTaxR-4" value="3" style="ellipse;whiteSpace=wrap;html=1;aspect=fixed;fillColor=#d5e8d4;strokeColor=#82b366;" vertex="1" parent="1">
          <mxGeometry x="1150" y="230" width="30" height="30" as="geometry" />
        </mxCell>
        <mxCell id="6P1iUBZrjP9FAu_aTaxR-16" style="edgeStyle=none;rounded=0;orthogonalLoop=1;jettySize=auto;html=1;exitX=0.5;exitY=1;exitDx=0;exitDy=0;entryX=0.5;entryY=0;entryDx=0;entryDy=0;fillColor=#d5e8d4;strokeColor=#82b366;" edge="1" parent="1" source="6P1iUBZrjP9FAu_aTaxR-5" target="6P1iUBZrjP9FAu_aTaxR-8">
          <mxGeometry relative="1" as="geometry" />
        </mxCell>
        <mxCell id="6P1iUBZrjP9FAu_aTaxR-5" value="2" style="ellipse;whiteSpace=wrap;html=1;aspect=fixed;fillColor=#d5e8d4;strokeColor=#82b366;" vertex="1" parent="1">
          <mxGeometry x="940" y="290" width="30" height="30" as="geometry" />
        </mxCell>
        <mxCell id="6P1iUBZrjP9FAu_aTaxR-6" value="3" style="ellipse;whiteSpace=wrap;html=1;aspect=fixed;fillColor=#d5e8d4;strokeColor=#82b366;" vertex="1" parent="1">
          <mxGeometry x="1000" y="290" width="30" height="30" as="geometry" />
        </mxCell>
        <mxCell id="6P1iUBZrjP9FAu_aTaxR-7" value="3" style="ellipse;whiteSpace=wrap;html=1;aspect=fixed;fillColor=#d5e8d4;strokeColor=#82b366;" vertex="1" parent="1">
          <mxGeometry x="1060" y="290" width="30" height="30" as="geometry" />
        </mxCell>
        <mxCell id="6P1iUBZrjP9FAu_aTaxR-8" value="3" style="ellipse;whiteSpace=wrap;html=1;aspect=fixed;fillColor=#d5e8d4;strokeColor=#82b366;" vertex="1" parent="1">
          <mxGeometry x="940" y="360" width="30" height="30" as="geometry" />
        </mxCell>
        <mxCell id="6P1iUBZrjP9FAu_aTaxR-26" style="edgeStyle=orthogonalEdgeStyle;curved=1;rounded=0;orthogonalLoop=1;jettySize=auto;html=1;exitX=0;exitY=0.5;exitDx=0;exitDy=0;entryX=0.441;entryY=-0.063;entryDx=0;entryDy=0;entryPerimeter=0;fillColor=#dae8fc;strokeColor=#0000FF;" edge="1" parent="1" source="6P1iUBZrjP9FAu_aTaxR-17" target="6P1iUBZrjP9FAu_aTaxR-18">
          <mxGeometry relative="1" as="geometry" />
        </mxCell>
        <mxCell id="6P1iUBZrjP9FAu_aTaxR-17" value="&lt;div style=&quot;text-align: left ; font-size: 15px&quot;&gt;&lt;font style=&quot;font-size: 15px&quot;&gt;初始sub = [ ]&lt;/font&gt;&lt;/div&gt;&lt;font style=&quot;font-size: 15px&quot;&gt;&lt;div style=&quot;text-align: left&quot;&gt;可选路径为{1，2，3}&lt;/div&gt;&lt;/font&gt;" style="text;html=1;strokeColor=#6c8ebf;fillColor=#dae8fc;align=center;verticalAlign=middle;whiteSpace=wrap;rounded=0;" vertex="1" parent="1">
          <mxGeometry x="290" y="130" width="160" height="40" as="geometry" />
        </mxCell>
        <mxCell id="6P1iUBZrjP9FAu_aTaxR-27" style="edgeStyle=orthogonalEdgeStyle;curved=1;rounded=0;orthogonalLoop=1;jettySize=auto;html=1;exitX=0.25;exitY=1;exitDx=0;exitDy=0;entryX=0.5;entryY=0;entryDx=0;entryDy=0;fillColor=#dae8fc;strokeColor=#0000FF;" edge="1" parent="1" source="6P1iUBZrjP9FAu_aTaxR-18" target="6P1iUBZrjP9FAu_aTaxR-19">
          <mxGeometry relative="1" as="geometry">
            <Array as="points">
              <mxPoint x="180" y="270" />
              <mxPoint x="130" y="270" />
            </Array>
          </mxGeometry>
        </mxCell>
        <mxCell id="6P1iUBZrjP9FAu_aTaxR-18" value="&lt;font style=&quot;font-size: 15px&quot;&gt;先选择 1&lt;br&gt;sub=[1]&lt;/font&gt;" style="text;html=1;strokeColor=#6c8ebf;fillColor=#dae8fc;align=left;verticalAlign=middle;whiteSpace=wrap;rounded=0;" vertex="1" parent="1">
          <mxGeometry x="160" y="200" width="80" height="40" as="geometry" />
        </mxCell>
        <mxCell id="6P1iUBZrjP9FAu_aTaxR-28" style="edgeStyle=orthogonalEdgeStyle;curved=1;rounded=0;orthogonalLoop=1;jettySize=auto;html=1;exitX=0.5;exitY=1;exitDx=0;exitDy=0;entryX=0.5;entryY=0;entryDx=0;entryDy=0;fillColor=#dae8fc;strokeColor=#0000FF;" edge="1" parent="1" source="6P1iUBZrjP9FAu_aTaxR-19" target="6P1iUBZrjP9FAu_aTaxR-20">
          <mxGeometry relative="1" as="geometry">
            <Array as="points">
              <mxPoint x="130" y="360" />
              <mxPoint x="110" y="360" />
            </Array>
          </mxGeometry>
        </mxCell>
        <mxCell id="6P1iUBZrjP9FAu_aTaxR-19" value="&lt;font style=&quot;font-size: 15px&quot;&gt;再选择 2&lt;br&gt;sub=[1，2]&lt;/font&gt;" style="text;html=1;strokeColor=#6c8ebf;fillColor=#dae8fc;align=left;verticalAlign=middle;whiteSpace=wrap;rounded=0;" vertex="1" parent="1">
          <mxGeometry x="90" y="300" width="80" height="40" as="geometry" />
        </mxCell>
        <mxCell id="6P1iUBZrjP9FAu_aTaxR-30" style="edgeStyle=orthogonalEdgeStyle;curved=1;rounded=0;orthogonalLoop=1;jettySize=auto;html=1;exitX=0.75;exitY=0;exitDx=0;exitDy=0;entryX=0.307;entryY=1.001;entryDx=0;entryDy=0;entryPerimeter=0;fillColor=#dae8fc;strokeColor=#6c8ebf;" edge="1" parent="1" source="6P1iUBZrjP9FAu_aTaxR-20" target="6P1iUBZrjP9FAu_aTaxR-29">
          <mxGeometry relative="1" as="geometry">
            <Array as="points">
              <mxPoint x="140" y="360" />
              <mxPoint x="220" y="360" />
            </Array>
          </mxGeometry>
        </mxCell>
        <mxCell id="6P1iUBZrjP9FAu_aTaxR-20" value="&lt;span style=&quot;font-size: 15px&quot;&gt;满足条件，添加到结果，且返回&lt;/span&gt;" style="text;html=1;strokeColor=#6c8ebf;fillColor=#dae8fc;align=center;verticalAlign=middle;whiteSpace=wrap;rounded=0;" vertex="1" parent="1">
          <mxGeometry x="50" y="390" width="120" height="40" as="geometry" />
        </mxCell>
        <mxCell id="6P1iUBZrjP9FAu_aTaxR-32" style="edgeStyle=orthogonalEdgeStyle;curved=1;rounded=0;orthogonalLoop=1;jettySize=auto;html=1;exitX=0.5;exitY=1;exitDx=0;exitDy=0;entryX=0.25;entryY=0;entryDx=0;entryDy=0;fillColor=#dae8fc;strokeColor=#0000FF;" edge="1" parent="1" source="6P1iUBZrjP9FAu_aTaxR-29" target="6P1iUBZrjP9FAu_aTaxR-31">
          <mxGeometry relative="1" as="geometry">
            <Array as="points">
              <mxPoint x="245" y="360" />
              <mxPoint x="324" y="360" />
            </Array>
          </mxGeometry>
        </mxCell>
        <mxCell id="6P1iUBZrjP9FAu_aTaxR-29" value="&lt;font style=&quot;font-size: 15px&quot;&gt;先删除2，再选择3&lt;br&gt;sub=[1，3]&lt;/font&gt;" style="text;html=1;strokeColor=#6c8ebf;fillColor=#dae8fc;align=left;verticalAlign=middle;whiteSpace=wrap;rounded=0;" vertex="1" parent="1">
          <mxGeometry x="180" y="300" width="130" height="40" as="geometry" />
        </mxCell>
        <mxCell id="6P1iUBZrjP9FAu_aTaxR-37" style="edgeStyle=orthogonalEdgeStyle;curved=1;rounded=0;orthogonalLoop=1;jettySize=auto;html=1;exitX=0.75;exitY=0;exitDx=0;exitDy=0;entryX=0.5;entryY=1;entryDx=0;entryDy=0;fillColor=#dae8fc;strokeColor=#6c8ebf;" edge="1" parent="1" source="6P1iUBZrjP9FAu_aTaxR-31" target="6P1iUBZrjP9FAu_aTaxR-34">
          <mxGeometry relative="1" as="geometry">
            <Array as="points">
              <mxPoint x="384" y="370" />
              <mxPoint x="395" y="370" />
            </Array>
          </mxGeometry>
        </mxCell>
        <mxCell id="6P1iUBZrjP9FAu_aTaxR-31" value="&lt;span style=&quot;font-size: 15px&quot;&gt;满足条件，添加到结果，且返回&lt;/span&gt;" style="text;html=1;strokeColor=#6c8ebf;fillColor=#dae8fc;align=center;verticalAlign=middle;whiteSpace=wrap;rounded=0;" vertex="1" parent="1">
          <mxGeometry x="294" y="390" width="120" height="40" as="geometry" />
        </mxCell>
        <mxCell id="6P1iUBZrjP9FAu_aTaxR-36" style="edgeStyle=orthogonalEdgeStyle;curved=1;rounded=0;orthogonalLoop=1;jettySize=auto;html=1;exitX=0.5;exitY=0;exitDx=0;exitDy=0;entryX=0.25;entryY=1;entryDx=0;entryDy=0;fillColor=#dae8fc;strokeColor=#6c8ebf;" edge="1" parent="1" source="6P1iUBZrjP9FAu_aTaxR-34" target="6P1iUBZrjP9FAu_aTaxR-35">
          <mxGeometry relative="1" as="geometry" />
        </mxCell>
        <mxCell id="6P1iUBZrjP9FAu_aTaxR-34" value="&lt;span style=&quot;font-size: 15px&quot;&gt;所有的选择都选完了，返回&lt;/span&gt;" style="text;html=1;strokeColor=#6c8ebf;fillColor=#dae8fc;align=left;verticalAlign=middle;whiteSpace=wrap;rounded=0;" vertex="1" parent="1">
          <mxGeometry x="330" y="300" width="130" height="40" as="geometry" />
        </mxCell>
        <mxCell id="6P1iUBZrjP9FAu_aTaxR-39" style="edgeStyle=orthogonalEdgeStyle;curved=1;rounded=0;orthogonalLoop=1;jettySize=auto;html=1;exitX=0.75;exitY=1;exitDx=0;exitDy=0;entryX=0.5;entryY=0;entryDx=0;entryDy=0;fillColor=#dae8fc;strokeColor=#0000FF;" edge="1" parent="1" source="6P1iUBZrjP9FAu_aTaxR-35" target="6P1iUBZrjP9FAu_aTaxR-38">
          <mxGeometry relative="1" as="geometry" />
        </mxCell>
        <mxCell id="6P1iUBZrjP9FAu_aTaxR-35" value="&lt;font style=&quot;font-size: 15px&quot;&gt;先删除1，再选择2&lt;br&gt;sub=[2]&lt;/font&gt;" style="text;html=1;strokeColor=#6c8ebf;fillColor=#dae8fc;align=left;verticalAlign=middle;whiteSpace=wrap;rounded=0;" vertex="1" parent="1">
          <mxGeometry x="335" y="200" width="130" height="40" as="geometry" />
        </mxCell>
        <mxCell id="6P1iUBZrjP9FAu_aTaxR-41" style="edgeStyle=orthogonalEdgeStyle;curved=1;rounded=0;orthogonalLoop=1;jettySize=auto;html=1;exitX=0.5;exitY=1;exitDx=0;exitDy=0;entryX=0.25;entryY=0;entryDx=0;entryDy=0;fillColor=#dae8fc;strokeColor=#0000FF;" edge="1" parent="1" source="6P1iUBZrjP9FAu_aTaxR-38" target="6P1iUBZrjP9FAu_aTaxR-40">
          <mxGeometry relative="1" as="geometry" />
        </mxCell>
        <mxCell id="6P1iUBZrjP9FAu_aTaxR-38" value="&lt;font style=&quot;font-size: 15px&quot;&gt;再选择 3&lt;br&gt;sub=[2，3]&lt;/font&gt;" style="text;html=1;strokeColor=#6c8ebf;fillColor=#dae8fc;align=left;verticalAlign=middle;whiteSpace=wrap;rounded=0;" vertex="1" parent="1">
          <mxGeometry x="490" y="295" width="80" height="40" as="geometry" />
        </mxCell>
        <mxCell id="6P1iUBZrjP9FAu_aTaxR-43" style="edgeStyle=orthogonalEdgeStyle;curved=1;rounded=0;orthogonalLoop=1;jettySize=auto;html=1;exitX=0.75;exitY=0;exitDx=0;exitDy=0;entryX=0.5;entryY=1;entryDx=0;entryDy=0;fillColor=#dae8fc;strokeColor=#6c8ebf;" edge="1" parent="1" source="6P1iUBZrjP9FAu_aTaxR-40" target="6P1iUBZrjP9FAu_aTaxR-42">
          <mxGeometry relative="1" as="geometry">
            <Array as="points">
              <mxPoint x="630" y="360" />
              <mxPoint x="655" y="360" />
            </Array>
          </mxGeometry>
        </mxCell>
        <mxCell id="6P1iUBZrjP9FAu_aTaxR-40" value="&lt;span style=&quot;font-size: 15px&quot;&gt;满足条件，添加到结果，且返回&lt;/span&gt;" style="text;html=1;strokeColor=#6c8ebf;fillColor=#dae8fc;align=center;verticalAlign=middle;whiteSpace=wrap;rounded=0;" vertex="1" parent="1">
          <mxGeometry x="540" y="390" width="120" height="40" as="geometry" />
        </mxCell>
        <mxCell id="6P1iUBZrjP9FAu_aTaxR-44" style="edgeStyle=orthogonalEdgeStyle;curved=1;rounded=0;orthogonalLoop=1;jettySize=auto;html=1;exitX=0.5;exitY=0;exitDx=0;exitDy=0;fillColor=#dae8fc;strokeColor=#6c8ebf;entryX=0.25;entryY=1;entryDx=0;entryDy=0;" edge="1" parent="1" source="6P1iUBZrjP9FAu_aTaxR-42" target="6P1iUBZrjP9FAu_aTaxR-45">
          <mxGeometry relative="1" as="geometry">
            <mxPoint x="600" y="260" as="targetPoint" />
          </mxGeometry>
        </mxCell>
        <mxCell id="6P1iUBZrjP9FAu_aTaxR-42" value="&lt;span style=&quot;font-size: 15px&quot;&gt;所有的选择都选完了，返回&lt;/span&gt;" style="text;html=1;strokeColor=#6c8ebf;fillColor=#dae8fc;align=left;verticalAlign=middle;whiteSpace=wrap;rounded=0;" vertex="1" parent="1">
          <mxGeometry x="590" y="300" width="130" height="40" as="geometry" />
        </mxCell>
        <mxCell id="6P1iUBZrjP9FAu_aTaxR-47" style="edgeStyle=orthogonalEdgeStyle;curved=1;rounded=0;orthogonalLoop=1;jettySize=auto;html=1;exitX=0.75;exitY=1;exitDx=0;exitDy=0;entryX=0.25;entryY=0;entryDx=0;entryDy=0;fillColor=#dae8fc;strokeColor=#0000FF;" edge="1" parent="1" source="6P1iUBZrjP9FAu_aTaxR-45" target="6P1iUBZrjP9FAu_aTaxR-46">
          <mxGeometry relative="1" as="geometry" />
        </mxCell>
        <mxCell id="6P1iUBZrjP9FAu_aTaxR-45" value="&lt;font style=&quot;font-size: 15px&quot;&gt;先删除2，再选择3&lt;br&gt;sub=[3]&lt;/font&gt;" style="text;html=1;strokeColor=#6c8ebf;fillColor=#dae8fc;align=left;verticalAlign=middle;whiteSpace=wrap;rounded=0;" vertex="1" parent="1">
          <mxGeometry x="540" y="200" width="130" height="40" as="geometry" />
        </mxCell>
        <mxCell id="6P1iUBZrjP9FAu_aTaxR-49" style="edgeStyle=orthogonalEdgeStyle;curved=1;rounded=0;orthogonalLoop=1;jettySize=auto;html=1;exitX=0.75;exitY=0;exitDx=0;exitDy=0;entryX=0.5;entryY=1;entryDx=0;entryDy=0;fillColor=#dae8fc;strokeColor=#6c8ebf;" edge="1" parent="1" source="6P1iUBZrjP9FAu_aTaxR-46" target="6P1iUBZrjP9FAu_aTaxR-48">
          <mxGeometry relative="1" as="geometry" />
        </mxCell>
        <mxCell id="6P1iUBZrjP9FAu_aTaxR-46" value="&lt;span style=&quot;font-size: 15px&quot;&gt;所有的选择都选完了，返回&lt;/span&gt;" style="text;html=1;strokeColor=#6c8ebf;fillColor=#dae8fc;align=left;verticalAlign=middle;whiteSpace=wrap;rounded=0;" vertex="1" parent="1">
          <mxGeometry x="750" y="295" width="130" height="40" as="geometry" />
        </mxCell>
        <mxCell id="6P1iUBZrjP9FAu_aTaxR-50" style="edgeStyle=orthogonalEdgeStyle;curved=1;rounded=0;orthogonalLoop=1;jettySize=auto;html=1;exitX=0.5;exitY=0;exitDx=0;exitDy=0;entryX=1;entryY=0.75;entryDx=0;entryDy=0;fillColor=#dae8fc;strokeColor=#6c8ebf;" edge="1" parent="1" source="6P1iUBZrjP9FAu_aTaxR-48" target="6P1iUBZrjP9FAu_aTaxR-17">
          <mxGeometry relative="1" as="geometry">
            <mxPoint x="460" y="150" as="targetPoint" />
          </mxGeometry>
        </mxCell>
        <mxCell id="6P1iUBZrjP9FAu_aTaxR-48" value="&lt;span style=&quot;font-size: 15px&quot;&gt;所有的选择都选完了，返回&lt;/span&gt;" style="text;html=1;strokeColor=#6c8ebf;fillColor=#dae8fc;align=left;verticalAlign=middle;whiteSpace=wrap;rounded=0;" vertex="1" parent="1">
          <mxGeometry x="730" y="200" width="130" height="40" as="geometry" />
        </mxCell>
        <mxCell id="6P1iUBZrjP9FAu_aTaxR-51" style="edgeStyle=orthogonalEdgeStyle;rounded=0;orthogonalLoop=1;jettySize=auto;html=1;exitX=0.5;exitY=1;exitDx=0;exitDy=0;entryX=0.5;entryY=0;entryDx=0;entryDy=0;fillColor=#d5e8d4;strokeColor=#82b366;" edge="1" parent="1" source="6P1iUBZrjP9FAu_aTaxR-54" target="6P1iUBZrjP9FAu_aTaxR-59">
          <mxGeometry relative="1" as="geometry" />
        </mxCell>
        <mxCell id="6P1iUBZrjP9FAu_aTaxR-52" style="edgeStyle=none;rounded=0;orthogonalLoop=1;jettySize=auto;html=1;exitX=0.5;exitY=1;exitDx=0;exitDy=0;entryX=1;entryY=0;entryDx=0;entryDy=0;fillColor=#d5e8d4;strokeColor=#82b366;" edge="1" parent="1" source="6P1iUBZrjP9FAu_aTaxR-54" target="6P1iUBZrjP9FAu_aTaxR-57">
          <mxGeometry relative="1" as="geometry" />
        </mxCell>
        <mxCell id="6P1iUBZrjP9FAu_aTaxR-53" style="edgeStyle=none;rounded=0;orthogonalLoop=1;jettySize=auto;html=1;exitX=0.5;exitY=1;exitDx=0;exitDy=0;entryX=0;entryY=0;entryDx=0;entryDy=0;fillColor=#d5e8d4;strokeColor=#82b366;" edge="1" parent="1" source="6P1iUBZrjP9FAu_aTaxR-54" target="6P1iUBZrjP9FAu_aTaxR-60">
          <mxGeometry relative="1" as="geometry" />
        </mxCell>
        <mxCell id="6P1iUBZrjP9FAu_aTaxR-54" value="[ ]" style="ellipse;whiteSpace=wrap;html=1;aspect=fixed;fillColor=#d5e8d4;strokeColor=#82b366;" vertex="1" parent="1">
          <mxGeometry x="270" y="560" width="30" height="30" as="geometry" />
        </mxCell>
        <mxCell id="6P1iUBZrjP9FAu_aTaxR-55" style="edgeStyle=none;rounded=0;orthogonalLoop=1;jettySize=auto;html=1;exitX=0.5;exitY=1;exitDx=0;exitDy=0;entryX=0.5;entryY=0;entryDx=0;entryDy=0;fillColor=#d5e8d4;strokeColor=#82b366;" edge="1" parent="1" source="6P1iUBZrjP9FAu_aTaxR-57" target="6P1iUBZrjP9FAu_aTaxR-62">
          <mxGeometry relative="1" as="geometry" />
        </mxCell>
        <mxCell id="6P1iUBZrjP9FAu_aTaxR-56" style="edgeStyle=none;rounded=0;orthogonalLoop=1;jettySize=auto;html=1;exitX=0.5;exitY=1;exitDx=0;exitDy=0;entryX=0.5;entryY=0;entryDx=0;entryDy=0;fillColor=#d5e8d4;strokeColor=#82b366;" edge="1" parent="1" source="6P1iUBZrjP9FAu_aTaxR-57" target="6P1iUBZrjP9FAu_aTaxR-63">
          <mxGeometry relative="1" as="geometry">
            <mxPoint x="228" y="679" as="targetPoint" />
          </mxGeometry>
        </mxCell>
        <mxCell id="6P1iUBZrjP9FAu_aTaxR-57" value="1" style="ellipse;whiteSpace=wrap;html=1;aspect=fixed;fillColor=#d5e8d4;strokeColor=#82b366;" vertex="1" parent="1">
          <mxGeometry x="177" y="620" width="30" height="30" as="geometry" />
        </mxCell>
        <mxCell id="6P1iUBZrjP9FAu_aTaxR-58" style="edgeStyle=none;rounded=0;orthogonalLoop=1;jettySize=auto;html=1;exitX=0.5;exitY=1;exitDx=0;exitDy=0;entryX=0.5;entryY=0;entryDx=0;entryDy=0;fillColor=#d5e8d4;strokeColor=#82b366;" edge="1" parent="1" source="6P1iUBZrjP9FAu_aTaxR-59" target="6P1iUBZrjP9FAu_aTaxR-64">
          <mxGeometry relative="1" as="geometry" />
        </mxCell>
        <mxCell id="6P1iUBZrjP9FAu_aTaxR-79" style="edgeStyle=none;rounded=0;orthogonalLoop=1;jettySize=auto;html=1;exitX=0.5;exitY=1;exitDx=0;exitDy=0;entryX=0.5;entryY=0;entryDx=0;entryDy=0;strokeColor=#82b366;fillColor=#d5e8d4;" edge="1" parent="1" source="6P1iUBZrjP9FAu_aTaxR-59" target="6P1iUBZrjP9FAu_aTaxR-76">
          <mxGeometry relative="1" as="geometry" />
        </mxCell>
        <mxCell id="6P1iUBZrjP9FAu_aTaxR-59" value="2" style="ellipse;whiteSpace=wrap;html=1;aspect=fixed;fillColor=#d5e8d4;strokeColor=#82b366;" vertex="1" parent="1">
          <mxGeometry x="270" y="620" width="30" height="30" as="geometry" />
        </mxCell>
        <mxCell id="6P1iUBZrjP9FAu_aTaxR-80" style="edgeStyle=none;rounded=0;orthogonalLoop=1;jettySize=auto;html=1;exitX=0.5;exitY=1;exitDx=0;exitDy=0;entryX=0.5;entryY=0;entryDx=0;entryDy=0;strokeColor=#82b366;fillColor=#d5e8d4;" edge="1" parent="1" source="6P1iUBZrjP9FAu_aTaxR-60" target="6P1iUBZrjP9FAu_aTaxR-77">
          <mxGeometry relative="1" as="geometry" />
        </mxCell>
        <mxCell id="6P1iUBZrjP9FAu_aTaxR-81" style="edgeStyle=none;rounded=0;orthogonalLoop=1;jettySize=auto;html=1;exitX=0.5;exitY=1;exitDx=0;exitDy=0;entryX=0.5;entryY=0;entryDx=0;entryDy=0;strokeColor=#82b366;fillColor=#d5e8d4;" edge="1" parent="1" source="6P1iUBZrjP9FAu_aTaxR-60" target="6P1iUBZrjP9FAu_aTaxR-78">
          <mxGeometry relative="1" as="geometry" />
        </mxCell>
        <mxCell id="6P1iUBZrjP9FAu_aTaxR-60" value="3" style="ellipse;whiteSpace=wrap;html=1;aspect=fixed;fillColor=#d5e8d4;strokeColor=#82b366;" vertex="1" parent="1">
          <mxGeometry x="360" y="620" width="30" height="30" as="geometry" />
        </mxCell>
        <mxCell id="6P1iUBZrjP9FAu_aTaxR-61" style="edgeStyle=none;rounded=0;orthogonalLoop=1;jettySize=auto;html=1;exitX=0.5;exitY=1;exitDx=0;exitDy=0;entryX=0.5;entryY=0;entryDx=0;entryDy=0;fillColor=#d5e8d4;strokeColor=#82b366;" edge="1" parent="1" source="6P1iUBZrjP9FAu_aTaxR-62" target="6P1iUBZrjP9FAu_aTaxR-65">
          <mxGeometry relative="1" as="geometry" />
        </mxCell>
        <mxCell id="6P1iUBZrjP9FAu_aTaxR-62" value="2" style="ellipse;whiteSpace=wrap;html=1;aspect=fixed;fillColor=#d5e8d4;strokeColor=#82b366;" vertex="1" parent="1">
          <mxGeometry x="157" y="680" width="30" height="30" as="geometry" />
        </mxCell>
        <mxCell id="6P1iUBZrjP9FAu_aTaxR-92" style="edgeStyle=none;rounded=0;orthogonalLoop=1;jettySize=auto;html=1;exitX=0.5;exitY=1;exitDx=0;exitDy=0;entryX=0.5;entryY=0;entryDx=0;entryDy=0;strokeColor=#82b366;fillColor=#d5e8d4;" edge="1" parent="1" source="6P1iUBZrjP9FAu_aTaxR-63" target="6P1iUBZrjP9FAu_aTaxR-82">
          <mxGeometry relative="1" as="geometry" />
        </mxCell>
        <mxCell id="6P1iUBZrjP9FAu_aTaxR-63" value="3" style="ellipse;whiteSpace=wrap;html=1;aspect=fixed;fillColor=#d5e8d4;strokeColor=#82b366;" vertex="1" parent="1">
          <mxGeometry x="197" y="680" width="30" height="30" as="geometry" />
        </mxCell>
        <mxCell id="6P1iUBZrjP9FAu_aTaxR-88" style="edgeStyle=none;rounded=0;orthogonalLoop=1;jettySize=auto;html=1;exitX=0.5;exitY=1;exitDx=0;exitDy=0;strokeColor=#82b366;fillColor=#d5e8d4;" edge="1" parent="1" source="6P1iUBZrjP9FAu_aTaxR-64" target="6P1iUBZrjP9FAu_aTaxR-85">
          <mxGeometry relative="1" as="geometry" />
        </mxCell>
        <mxCell id="6P1iUBZrjP9FAu_aTaxR-64" value="3" style="ellipse;whiteSpace=wrap;html=1;aspect=fixed;fillColor=#d5e8d4;strokeColor=#82b366;" vertex="1" parent="1">
          <mxGeometry x="290" y="680" width="30" height="30" as="geometry" />
        </mxCell>
        <mxCell id="6P1iUBZrjP9FAu_aTaxR-65" value="3" style="ellipse;whiteSpace=wrap;html=1;aspect=fixed;fillColor=#d5e8d4;strokeColor=#82b366;" vertex="1" parent="1">
          <mxGeometry x="157" y="737" width="30" height="30" as="geometry" />
        </mxCell>
        <mxCell id="6P1iUBZrjP9FAu_aTaxR-89" style="edgeStyle=none;rounded=0;orthogonalLoop=1;jettySize=auto;html=1;exitX=0.5;exitY=1;exitDx=0;exitDy=0;entryX=0.5;entryY=0;entryDx=0;entryDy=0;strokeColor=#82b366;fillColor=#d5e8d4;" edge="1" parent="1" source="6P1iUBZrjP9FAu_aTaxR-76" target="6P1iUBZrjP9FAu_aTaxR-83">
          <mxGeometry relative="1" as="geometry" />
        </mxCell>
        <mxCell id="6P1iUBZrjP9FAu_aTaxR-76" value="1" style="ellipse;whiteSpace=wrap;html=1;aspect=fixed;fillColor=#d5e8d4;strokeColor=#82b366;" vertex="1" parent="1">
          <mxGeometry x="250" y="680" width="30" height="30" as="geometry" />
        </mxCell>
        <mxCell id="6P1iUBZrjP9FAu_aTaxR-90" style="edgeStyle=none;rounded=0;orthogonalLoop=1;jettySize=auto;html=1;exitX=0.5;exitY=1;exitDx=0;exitDy=0;entryX=0.5;entryY=0;entryDx=0;entryDy=0;strokeColor=#82b366;fillColor=#d5e8d4;" edge="1" parent="1" source="6P1iUBZrjP9FAu_aTaxR-77" target="6P1iUBZrjP9FAu_aTaxR-86">
          <mxGeometry relative="1" as="geometry" />
        </mxCell>
        <mxCell id="6P1iUBZrjP9FAu_aTaxR-77" value="1" style="ellipse;whiteSpace=wrap;html=1;aspect=fixed;fillColor=#d5e8d4;strokeColor=#82b366;" vertex="1" parent="1">
          <mxGeometry x="339" y="680" width="30" height="30" as="geometry" />
        </mxCell>
        <mxCell id="6P1iUBZrjP9FAu_aTaxR-91" style="edgeStyle=none;rounded=0;orthogonalLoop=1;jettySize=auto;html=1;exitX=0.5;exitY=1;exitDx=0;exitDy=0;entryX=0.5;entryY=0;entryDx=0;entryDy=0;strokeColor=#82b366;fillColor=#d5e8d4;" edge="1" parent="1" source="6P1iUBZrjP9FAu_aTaxR-78" target="6P1iUBZrjP9FAu_aTaxR-87">
          <mxGeometry relative="1" as="geometry" />
        </mxCell>
        <mxCell id="6P1iUBZrjP9FAu_aTaxR-78" value="2" style="ellipse;whiteSpace=wrap;html=1;aspect=fixed;fillColor=#d5e8d4;strokeColor=#82b366;" vertex="1" parent="1">
          <mxGeometry x="380" y="680" width="30" height="30" as="geometry" />
        </mxCell>
        <mxCell id="6P1iUBZrjP9FAu_aTaxR-82" value="2" style="ellipse;whiteSpace=wrap;html=1;aspect=fixed;fillColor=#d5e8d4;strokeColor=#82b366;" vertex="1" parent="1">
          <mxGeometry x="197" y="737" width="30" height="30" as="geometry" />
        </mxCell>
        <mxCell id="6P1iUBZrjP9FAu_aTaxR-83" value="3" style="ellipse;whiteSpace=wrap;html=1;aspect=fixed;fillColor=#d5e8d4;strokeColor=#82b366;" vertex="1" parent="1">
          <mxGeometry x="250" y="737" width="30" height="30" as="geometry" />
        </mxCell>
        <mxCell id="6P1iUBZrjP9FAu_aTaxR-85" value="1" style="ellipse;whiteSpace=wrap;html=1;aspect=fixed;fillColor=#d5e8d4;strokeColor=#82b366;" vertex="1" parent="1">
          <mxGeometry x="290" y="737" width="30" height="30" as="geometry" />
        </mxCell>
        <mxCell id="6P1iUBZrjP9FAu_aTaxR-86" value="2" style="ellipse;whiteSpace=wrap;html=1;aspect=fixed;fillColor=#d5e8d4;strokeColor=#82b366;" vertex="1" parent="1">
          <mxGeometry x="339" y="737" width="30" height="30" as="geometry" />
        </mxCell>
        <mxCell id="6P1iUBZrjP9FAu_aTaxR-87" value="1" style="ellipse;whiteSpace=wrap;html=1;aspect=fixed;fillColor=#d5e8d4;strokeColor=#82b366;" vertex="1" parent="1">
          <mxGeometry x="380" y="737" width="30" height="30" as="geometry" />
        </mxCell>
      </root>
    </mxGraphModel>
  </diagram>
</mxfile>
